# xmcd
#
# Track frame offsets:
#  150
#  21827
#  35176
#  56910
#  74342
#  88587
#  105799
#  130170
#  146193
#  155748
#  180159
#  195069
#  211727
#  233140
#  255772
#  272686
#  293416
#  311045
#  329255
#
# Disc length: 4706 seconds
#
# Revision: 0
# Processed by: cddbd v1.5.1PL2 Copyright (c) Steve Scherf et al.
# Submitted via: Collectorz.com_Music_Collector 6.11
#
DISCID=03126013
DTITLE=Various Artist - The Gift - A Woman's Song
DYEAR=2006
DGENRE=Blues
TTITLE0=Marcia Howard - Days To Remember
TTITLE1=Tiffany Eckhardt - Love You So
TTITLE2=Missy Higgins - The Sound Of White
TTITLE3=Kristina Olsen - The Truth Of A Woman
TTITLE4=Nadia Sunde - Time Of Our Lives
TTITLE5=Rachel Hore - Faith
TTITLE6=Liz Frencham And The Dream Seat - The Stronger The Tree
TTITLE7=Deborah Conway - Today I Am A Daisy
TTITLE8=Lil' Fi - Celebrate The Curves
TTITLE9=Rose Bygrave - Spiritual Thing
TTITLE10=The Waifs - Lighthouse
TTITLE11=Stringmansassy - Gentle Rain
TTITLE12=Elixir - Sleep Soundly, Peacefully
TTITLE13=Forbes, Melissa - Still
TTITLE14=Jo Jo Smith - First Memories
TTITLE15=Mia Dyson - Roll On
TTITLE16=Zardi - Spokes In The Wheel
TTITLE17=Women In Docs - Times Like These
TTITLE18=Natalie Griffiths - Real Love
EXTD=
EXTT0=
EXTT1=
EXTT2=
EXTT3=
EXTT4=
EXTT5=
EXTT6=
EXTT7=
EXTT8=
EXTT9=
EXTT10=
EXTT11=
EXTT12=
EXTT13=
EXTT14=
EXTT15=
EXTT16=
EXTT17=
EXTT18=
PLAYORDER=
